<?xml version="1.0" encoding="UTF-8" standalone="no"?>
<!-- Created with Inkscape (http://www.inkscape.org/) -->

<svg
   xmlns:dc="http://purl.org/dc/elements/1.1/"
   xmlns:cc="http://creativecommons.org/ns#"
   xmlns:rdf="http://www.w3.org/1999/02/22-rdf-syntax-ns#"
   xmlns:svg="http://www.w3.org/2000/svg"
   xmlns="http://www.w3.org/2000/svg"
   xmlns:sodipodi="http://sodipodi.sourceforge.net/DTD/sodipodi-0.dtd"
   xmlns:inkscape="http://www.inkscape.org/namespaces/inkscape"
   inkscape:export-ydpi="90.000000"
   inkscape:export-xdpi="90.000000"
   width="16"
   height="16"
   id="svg11300"
   sodipodi:version="0.32"
   inkscape:version="0.91 r13725"
   sodipodi:docname="tux.svg"
   inkscape:output_extension="org.inkscape.output.svg.inkscape"
   version="1.0"
   style="display:inline;enable-background:new">
  <sodipodi:namedview
     stroke="#ef2929"
     fill="#f57900"
     id="base"
     pagecolor="#8c8c8c"
     bordercolor="#ff5e00"
     borderopacity="1"
     inkscape:pageopacity="0"
     inkscape:pageshadow="2"
     inkscape:zoom="32"
     inkscape:cx="7.394794"
     inkscape:cy="8.952218"
     inkscape:current-layer="layer1"
     showgrid="true"
     inkscape:grid-bbox="true"
     inkscape:document-units="px"
     inkscape:showpageshadow="false"
     inkscape:window-width="1600"
     inkscape:window-height="848"
     inkscape:window-x="0"
     inkscape:window-y="24"
     width="400px"
     height="300px"
     inkscape:snap-nodes="false"
     inkscape:snap-bbox="true"
     gridtolerance="10000"
     inkscape:object-nodes="true"
     inkscape:snap-grids="true"
     showguides="true"
     inkscape:guide-bbox="true"
     inkscape:window-maximized="1"
     inkscape:bbox-nodes="true"
     inkscape:bbox-paths="false"
     inkscape:snap-bbox-edge-midpoints="false"
     inkscape:snap-bbox-midpoints="false"
     objecttolerance="10000"
     guidetolerance="10000"
     borderlayer="true"
     showborder="true"
     guidecolor="#ff0b00"
     guideopacity="1"
     guidehicolor="#001aff"
     guidehiopacity="0.49803922"
     inkscape:snap-smooth-nodes="true"
     inkscape:object-paths="false">
    <inkscape:grid
       type="xygrid"
       id="grid3123"
       empspacing="4"
       visible="true"
       enabled="true"
       snapvisiblegridlinesonly="true" />
  </sodipodi:namedview>
  <defs
     id="defs3" />
  <metadata
     id="metadata4">
    <rdf:RDF>
      <cc:Work
         rdf:about="">
        <dc:format>image/svg+xml</dc:format>
        <dc:type
           rdf:resource="http://purl.org/dc/dcmitype/StillImage" />
        <dc:creator>
          <cc:Agent>
            <dc:title />
          </cc:Agent>
        </dc:creator>
        <dc:source />
        <cc:license
           rdf:resource="" />
        <dc:title></dc:title>
        <dc:subject>
          <rdf:Bag />
        </dc:subject>
        <dc:date />
        <dc:rights>
          <cc:Agent>
            <dc:title />
          </cc:Agent>
        </dc:rights>
        <dc:publisher>
          <cc:Agent>
            <dc:title />
          </cc:Agent>
        </dc:publisher>
        <dc:identifier />
        <dc:relation />
        <dc:language />
        <dc:coverage />
        <dc:description />
        <dc:contributor>
          <cc:Agent>
            <dc:title />
          </cc:Agent>
        </dc:contributor>
      </cc:Work>
      <cc:Work
         rdf:about="">
        <dc:format>image/svg+xml</dc:format>
        <dc:type
           rdf:resource="http://purl.org/dc/dcmitype/StillImage" />
      </cc:Work>
    </rdf:RDF>
  </metadata>
  <g
     style="display:inline"
     inkscape:groupmode="layer"
     inkscape:label="Base"
     id="layer1"
     transform="translate(0,-284)">
    <g
       style="display:inline;fill:#bababa;enable-background:new"
       id="g4256"
       transform="matrix(0.17777778,0,0,0.17777778,-0.51106959,283.46667)">
      <g
         transform="translate(0,-204)"
         id="layer1-7"
         inkscape:label="Base"
         style="display:inline;fill:#bababa">
        <path
           style="fill:#bababa;fill-opacity:1;stroke:none"
           d="M 12,4 C 10.34102,4.0118406 9,5.359707 9,7.0214844 9.0000001,9.0000003 8.6976146,10.584607 8,12 6.9771831,13.87493 7,13.999999 7,16.40625 7.7670788,16.139798 8,15 9,15 9,13 9.9993057,12.999571 10.34375,9.5273438 10.820811,9.9905414 11,11 12,11 13,11 13.179189,9.9905402 13.65625,9.5273438 14.000694,12.999571 15,13 15,15 c 1,0 1.232921,1.139798 2,1.40625 C 17,13.999999 17.022817,13.87493 16,12 15.302385,10.584606 15,9 15,7.0214844 15,5.3597066 13.65898,4.01184 12,4 Z M 11,16 C 10,16 8.9999999,16 8.6523438,16.494141 8.3046875,16.988282 8.4835426,17.561512 7.4003906,17.775391 7.4472315,18.528395 8.4840764,19.843429 11,20 l 0,-4 z m 2,0 0,4 c 2.515924,-0.156571 3.552768,-1.471605 3.599609,-2.224609 -1.083152,-0.213879 -0.904296,-0.78711 -1.251953,-1.28125 C 15,16 14,16 13,16 Z"
           transform="matrix(5.6249999,0,0,5.6249999,-19.624999,184.49998)"
           id="path4143"
           inkscape:connector-curvature="0" />
      </g>
    </g>
    <g
       id="g5597"
       transform="translate(-789.99996,118.00001)"
       style="display:inline;opacity:1;fill:#bababa;fill-opacity:1;filter:url(#filter5580);enable-background:new" />
    <g
       id="g5786"
       transform="translate(-1115.5847,204.58475)"
       style="display:inline;opacity:1;fill:#bababa;fill-opacity:1;filter:url(#filter5580);enable-background:new" />
  </g>
</svg>
